<?xml version="1.0" encoding="UTF-8" standalone="no"?>
<svg width="100%" height="100%" xmlns="http://www.w3.org/2000/svg" preserveAspectRatio="xMinYMin meet" viewBox="0 0 96.8 21" class="accentFillColor accent-light-fill-color">
  <g>
    <g id="_x32">
      <g id="svg_1">
        <g id="svg_2">
          <path id="svg_3" d="m47.002846,4.636176c0,0.268726 -0.093616,0.491196 -0.279743,0.669612c-0.187225,0.178416 -0.4086,0.266523 -0.665207,0.266523c-0.262119,0 -0.484592,-0.085904 -0.665211,-0.257713c-0.182819,-0.171808 -0.272026,-0.397582 -0.272026,-0.678423c0,-0.251105 0.090305,-0.46917 0.266518,-0.651992c0.17952,-0.183923 0.40089,-0.276435 0.669621,-0.276435c0.268723,0 0.494495,0.09031 0.675114,0.272029c0.180622,0.18062 0.270935,0.399786 0.270935,0.656398z"></path>
        </g>
        <g id="svg_4">
          <path id="svg_5" d="m44.170204,3.976476l-3.547401,12.56515l-1.7258,0l-2.804005,-9.954983l-0.035236,0l-2.813919,9.954983l-1.708172,0l-3.672958,-12.56515l1.612358,0l2.909733,10.488028l0.03524,0l3.031979,-10.488028l1.418522,0l2.874489,10.52437l0.035244,0l2.795193,-10.52437l1.594734,0z"></path>
          <path id="svg_6" d="m46.800194,16.541626l-1.438339,0l0,-8.97259l1.438339,0l0,8.97259z"></path>
          <path id="svg_7" d="m56.406052,16.541626l-1.438343,0l0,-5.116814c0,-1.898705 -0.694946,-2.846955 -2.084831,-2.846955c-0.709259,0 -1.300682,0.266527 -1.774258,0.801774c-0.477978,0.534149 -0.713657,1.215876 -0.713657,2.045181l0,5.116814l-1.439453,0l0,-8.97259l1.439453,0l0,1.490106l0.034142,0c0.670708,-1.138779 1.652,-1.70817 2.944969,-1.70817c0.986797,0 1.740112,0.32159 2.255535,0.963667c0.517632,0.642079 0.776443,1.553986 0.776443,2.733518l0,5.49347z"></path>
          <path id="svg_8" d="m66.308174,16.541626l-1.436142,0l0,-1.524253l-0.035248,0c-0.665207,1.16191 -1.694954,1.743421 -3.084846,1.743421c-1.132172,0 -2.036369,-0.407495 -2.707088,-1.222488c-0.672913,-0.813886 -1.007717,-1.903111 -1.007717,-3.264362c0,-1.483498 0.371151,-2.675145 1.116753,-3.573837c0.745609,-0.899789 1.742317,-1.350237 2.993443,-1.350237c1.22578,0 2.123371,0.484589 2.689457,1.454866l0.035248,0l0,-5.547433l1.436142,0l0,13.284323zm-1.436142,-4.056226l0,-1.323806c0,-0.740099 -0.247795,-1.356848 -0.740105,-1.848044c-0.494503,-0.490093 -1.095829,-0.735693 -1.802891,-0.735693c-0.863445,0 -1.550678,0.319387 -2.058395,0.959267c-0.507717,0.639875 -0.762119,1.52535 -0.762119,2.658625c0,1.029751 0.238983,1.841434 0.719173,2.440561c0.479073,0.599127 1.123356,0.897589 1.937244,0.897589c0.787457,0 1.436146,-0.286345 1.943871,-0.857941c0.508812,-0.571593 0.763222,-1.301778 0.763222,-2.190557z"></path>
          <path id="svg_9" d="m76.975708,12.020635c0,1.426231 -0.40419,2.572725 -1.21476,3.439476c-0.809494,0.867854 -1.894302,1.301782 -3.254456,1.301782c-1.32711,0 -2.385498,-0.421814 -3.178459,-1.266541c-0.789658,-0.843622 -1.186134,-1.953769 -1.186134,-3.332644c0,-1.483498 0.406387,-2.656423 1.21698,-3.51877c0.811668,-0.861242 1.930634,-1.291865 3.357964,-1.291865c1.330421,0 2.37339,0.416306 3.127792,1.248915c0.753326,0.831508 1.131073,1.971392 1.131073,3.419648zm-1.473587,0.052866c0,-1.126666 -0.248894,-1.991215 -0.748909,-2.593647c-0.498901,-0.601332 -1.213661,-0.901997 -2.140999,-0.901997c-0.924019,0 -1.65419,0.307274 -2.190552,0.924023c-0.537453,0.615647 -0.806175,1.485703 -0.806175,2.606862c0,1.074905 0.268723,1.913023 0.809479,2.518757c0.540749,0.604634 1.268738,0.9064 2.187248,0.9064c0.935036,0 1.650917,-0.297359 2.146507,-0.894284c0.495605,-0.594721 0.743401,-1.45046 0.743401,-2.566113z"></path>
          <path id="svg_10" d="m90.022148,7.569036l-2.689468,8.97259l-1.491203,0l-2.005531,-6.965957l-0.035248,0l-2.174042,6.965957l-1.437241,0l-2.707092,-8.97259l1.506638,0l1.9813,7.237982l0.069382,0l2.217003,-7.237982l1.313896,0l1.99781,7.237982l0.069389,0l1.963676,-7.237982l1.420731,0z"></path>
          <path id="svg_11" d="m96.112534,14.141809c0,0.776443 -0.299561,1.40751 -0.898689,1.893202c-0.596909,0.483486 -1.394287,0.726881 -2.387688,0.726881c-0.846939,0 -1.588127,-0.181721 -2.225807,-0.542957l0,-1.541873c0.707054,0.572692 1.483498,0.857939 2.331535,0.857939c1.138786,0 1.709267,-0.417408 1.709267,-1.253319c0,-0.339214 -0.113434,-0.615648 -0.332603,-0.828207c-0.223572,-0.212559 -0.727982,-0.501109 -1.516533,-0.862347c-0.796272,-0.339211 -1.355751,-0.703754 -1.682846,-1.091425s-0.490105,-0.903096 -0.490105,-1.546275c0,-0.741201 0.298477,-1.36015 0.893196,-1.857955c0.595833,-0.496702 1.353539,-0.744502 2.269852,-0.744502c0.709251,0 1.346931,0.139869 1.918533,0.42071l0,1.446054c-0.582619,-0.426216 -1.261032,-0.639878 -2.031967,-0.639878c-0.472481,0 -0.853539,0.116744 -1.144287,0.350225c-0.288559,0.233484 -0.433937,0.534149 -0.433937,0.901997c0,0.39758 0.111244,0.702651 0.332603,0.916313c0.223572,0.212555 0.681732,0.464761 1.376678,0.756615c0.853531,0.362342 1.450447,0.742302 1.79628,1.138783c0.342514,0.398684 0.516518,0.89869 0.516518,1.500019z"></path>
        </g>
      </g>
      <g id="svg_12">
        <polygon id="svg_13" points="-3.72529e-8 11.057 -3.72529e-8 18.0505 8.81069 19.2784 8.81069 11.057"></polygon>
        <polygon id="svg_14" points="-3.72529e-8 2.96545 -3.72529e-8 9.95563 8.81069 9.95563 8.81069 1.73636"></polygon>
        <polygon id="svg_15" points="20.9254 20.969 20.9254 11.057 9.91203 11.057 9.91203 19.4315"></polygon>
        <polygon id="svg_16" points="20.9254 9.95563 20.9254 0.0436021 9.91203 1.58217 9.91203 9.95563"></polygon>
      </g>
    </g>
  </g>
</svg>